<?xml version="1.0" encoding="UTF-8"?>
<svg xmlns="http://www.w3.org/2000/svg" viewBox="0 0 1920 240.38" fill="#ebebeb">
    <polygon points="515.97 21.75 491.24 64.58 515.97 107.4 565.41 107.4 590.14 64.58 565.41 21.75 515.97 21.75" fill="#231f20"/>
    <path d="m1675.78,138.13l-24.73,42.82,24.73,42.82h49.45l24.72-42.82-24.72-42.82h-49.45Zm96.58-61.45l-24.73,42.82,24.73,42.82h49.45l24.73-42.82-24.73-42.82h-49.45ZM1920.19.17v-.17H-.2v117.66l.27,4.41,33.13,59.35h70.22l35.11-60.81h46.74l35.11,60.81h70.22l35.11-60.81h41l33.25-57.59h70.22l36.64,60.81h70.22l35.11-60.81-.35-.61h56.61l31.08-53.83h76.42l31.08,53.83h50.4l-.35.61,35.11,60.81h70.22l35.11-60.81-.35-.61h52.4l34.18,59.2h70.22l34.18-59.2h47.66l31.08-53.83h76.42l31.08,53.83h62.73l34.18,59.2h70.22l34.18-59.2h54.62l-.35.61,33.25,57.59-33.25,57.59,35.11,60.81h70.22l33.25-57.59h69.18l33.25-57.59h49.19V8.58h.02V.17h-.02ZM566.81,109.71h-52.13l-26.07-45.14,26.07-45.14h52.13l26.07,45.14-26.07,45.14Zm384.18-3.95h-47.57l-23.78-41.19,23.78-41.19h47.57l23.78,41.19-23.78,41.19Zm775.58,120.33h-52.13l-26.07-45.14,26.07-45.14h52.13l26.06,45.14-26.06,45.14Zm96.58-61.45h-52.13l-26.07-45.14,26.07-45.14h52.13l26.07,45.14-26.07,45.14Z" />
    <polygon points="127.47 41.78 88.22 41.78 68.6 75.77 88.22 109.76 127.47 109.76 147.09 75.77 127.47 41.78" fill="#45536c"/>
    <path d="m133.91,30.63h-52.12l-26.06,45.14,26.06,45.14h52.12l26.06-45.14-26.06-45.14Zm-1.34,87.96h-49.45l-24.72-42.82,24.72-42.82h49.45l24.72,42.82-24.72,42.82Z" fill="#ecebea"/>
    <polygon points="1719.95 146.97 1680.7 146.97 1661.08 180.95 1680.7 214.94 1719.95 214.94 1739.58 180.95 1719.95 146.97" fill="#45536c"/>
    <polygon points="1472.66 122.92 1540.76 122.92 1574.8 63.95 1540.76 4.97 1472.66 4.97 1438.61 63.95 1472.66 122.92" fill="#45536c"/>
    <path d="m249.15,163.74l24.72-42.82h49.45l24.72,42.82-24.72,42.82h-49.45l-24.72-42.82Zm23.39-45.14l-26.06,45.14,26.06,45.14h52.12l26.06-45.14-26.06-45.14h-52.12Z" fill="#ecebea"/>
</svg>