<svg xmlns="http://www.w3.org/2000/svg" id="Layer_2" viewBox="0 0 577 80"><defs><style>.cls-1{fill:#b0b0b1;}</style></defs><g id="Layer_1-2"><polygon class="cls-1" points="0 36.75 17.28 36.75 30.99 12.88 40.52 12.88 27.01 36.75 42.82 36.75 56.54 12.88 70.25 36.75 87.63 36.75 66.28 0 21.25 0 0 36.75"></polygon><polygon points="87.63 40.03 70.36 40.03 56.64 63.9 47.12 63.9 60.62 40.03 44.81 40.03 31.1 63.9 17.38 40.03 0 40.03 21.36 76.78 66.38 76.78 87.63 40.03"></polygon><polygon points="141.78 12.99 141.78 73.97 131.01 73.97 131.01 12.99 119.53 12.99 119.53 2.83 153.27 2.83 153.27 12.99 141.78 12.99"></polygon><polygon points="183.65 73.97 183.65 42.97 170.85 42.97 170.85 73.97 160.08 73.97 160.08 2.83 170.85 2.83 170.85 32.81 183.65 32.81 183.65 2.83 194.43 2.83 194.43 73.97 183.65 73.97"></polygon><polygon points="216.78 12.79 216.78 32.91 232.54 32.91 232.54 42.87 216.78 42.87 216.78 64.01 236.3 64.01 236.3 73.97 206.01 73.97 206.01 2.83 236.3 2.83 236.3 12.79 216.78 12.79"></polygon><polygon points="294.32 73.97 288.23 31.59 288.02 31.59 281.82 73.97 270.85 73.97 259.87 2.83 270.95 2.83 277.15 49.98 277.35 49.98 283.45 2.83 293 2.83 299.1 49.98 299.3 49.98 305.5 2.83 316.28 2.83 305.3 73.97 294.32 73.97"></polygon><path d="m357.13,19.8v37.2c0,11.18-6.61,17.99-17.38,17.99s-17.38-6.81-17.38-17.99V19.8c0-11.18,6.61-17.99,17.38-17.99s17.38,6.81,17.38,17.99m-23.98.1v36.99c0,5.28,2.34,8.13,6.61,8.13s6.61-2.85,6.61-8.13V19.9c0-5.28-2.34-8.13-6.61-8.13s-6.61,2.85-6.61,8.13"></path><path d="m382.33,43.89h-4.98v30.08h-10.77V2.83h15.55c11.59,0,17.89,6.3,17.89,17.99v5.08c0,7.52-2.64,12.81-7.62,15.65l9.86,32.42h-11.38l-8.54-30.08Zm-4.98-9.96h4.37c5.18,0,7.52-2.74,7.52-8.74v-3.66c0-6-2.34-8.74-7.52-8.74h-4.37v21.14Z"></path><polygon points="446.56 73.97 435.08 73.97 424.51 42.87 419.84 52.02 419.84 73.97 409.06 73.97 409.06 2.83 419.84 2.83 419.84 32.5 420.04 32.5 434.98 2.83 446.26 2.83 431.62 31.08 446.56 73.97"></polygon><path class="cls-1" d="m481.62,18.07v2.03l-10.36,1.02v-2.24c0-4.88-1.83-7.11-5.59-7.11-3.15,0-5.39,1.73-5.39,5.79v1.52c0,3.96,2.03,7.22,9.05,13.62,9.55,8.84,12.81,14.63,12.81,22.87v3.46c0,10.47-6.61,15.96-16.46,15.96s-16.67-5.79-16.67-16.26v-4.67l10.37-1.02v4.88c0,4.78,2.24,7.11,6.1,7.11,3.25,0,5.89-1.73,5.89-6.81v-2.24c0-4.47-2.03-7.72-9.04-14.13-9.55-8.84-12.8-14.63-12.8-22.36v-1.73c0-10.47,6.1-15.95,16.06-15.95s16.06,5.79,16.06,16.26"></path><rect class="cls-1" x="489.04" y="2.83" width="10.77" height="71.14"></rect><polygon class="cls-1" points="528.88 12.99 528.88 73.97 518.11 73.97 518.11 12.99 506.62 12.99 506.62 2.83 540.36 2.83 540.36 12.99 528.88 12.99"></polygon><polygon class="cls-1" points="557.94 12.79 557.94 32.91 573.7 32.91 573.7 42.87 557.94 42.87 557.94 64.01 577.46 64.01 577.46 73.97 547.17 73.97 547.17 2.83 577.46 2.83 577.46 12.79 557.94 12.79"></polygon></g></svg>